<svg xmlns="http://www.w3.org/2000/svg" viewBox="0 0 260.69168 84.33733"><defs><style>.cls-1{fill:#22f;}.cls-2,.cls-4{fill:#f80;}.cls-2{stroke:#e57341;}.cls-3,.cls-5{fill:#fff;}.cls-3{stroke:#aaa;}.cls-3,.cls-4,.cls-7,.cls-8{stroke-width:2px;}.cls-4{stroke:#f84;}.cls-6,.cls-7{fill:#44f;}.cls-7{stroke:#22f;}.cls-8{fill:none;stroke:#000;}.cls-9{fill:red;}</style></defs><title>logo-full</title><g id="katman_1" data-name="katman 1"><path class="cls-1" d="M56.6599,32.83888H35.468c-2.68609,0-4.69256,1.88682-4.48673,4.15758l2.33916,25.80533c.14333,1.58123,2.01591,2.8372,4.18541,2.8372H54.62207c2.16949,0,4.04207-1.256,4.1854-2.8372l2.33916-25.80533C61.35247,34.7257,59.346,32.83888,56.6599,32.83888Z"/><path class="cls-2" d="M61.00583,49.15857h5.66491a4.08609,4.08609,0,0,1,4.08609,4.08609V71.59832a4.086,4.086,0,0,1-4.086,4.086H61.00588a4.08609,4.08609,0,0,1-4.08609-4.08609V53.24461a4.086,4.086,0,0,1,4.086-4.086Z" transform="translate(137.05163 11.31787) rotate(100.72752)"/><path class="cls-3" d="M75.58159,71.68789l-2.95215-.5593c-5.9043-1.11861-4.6165-7.91622,1.28781-6.79761l2.95215.5593-2.95215-.5593c-5.90431-1.11861-4.6165-7.91622,1.2878-6.79761l2.95215.5593Z"/><rect class="cls-2" x="21.63186" y="49.19977" width="13.83706" height="26.52583" rx="4.08607" transform="translate(84.60686 22.78417) rotate(79.2721)"/><path class="cls-3" d="M14.23144,58.1339l2.95215-.5593c5.90431-1.11861,7.19216,5.679,1.28785,6.79761l-2.95215.5593,2.95215-.5593c5.90431-1.11861,7.19216,5.679,1.28785,6.79761l-2.95215.5593Z"/><path class="cls-2" d="M36.09742,39.18622h5.66491A4.08608,4.08608,0,0,1,45.8484,43.2723v22.31a4.086,4.086,0,0,1-4.086,4.086H36.09749a4.0861,4.0861,0,0,1-4.0861-4.0861V43.27225a4.086,4.086,0,0,1,4.086-4.086Z" transform="translate(94.31929 91.97559) rotate(159.70806)"/><path class="cls-3" d="M37.72622,71.12172l-1.042-2.8182c-2.084-5.6364,4.40508-8.03577,6.48911-2.39937l1.042,2.8182-1.042-2.8182c-2.084-5.6364,4.40509-8.03576,6.48911-2.39936l1.042,2.8182Z"/><path class="cls-2" d="M63.54677,25.20763h5.66491a4.08609,4.08609,0,0,1,4.08609,4.08609V47.64738a4.086,4.086,0,0,1-4.086,4.086H63.54682a4.08609,4.08609,0,0,1-4.08609-4.08609V29.29368A4.086,4.086,0,0,1,63.54677,25.20763Z" transform="translate(78.8111 -37.23703) rotate(69.23053)"/><path class="cls-3" d="M81.23365,40.23638l-2.80941,1.06547c-5.61883,2.13093-8.0722-4.338-2.45337-6.46892l2.80941-1.06547-2.80941,1.06547c-5.61883,2.13093-8.0722-4.338-2.45337-6.46892l2.80941-1.06547Z"/><rect class="cls-4" x="29.4744" y="14.55772" width="10" height="15" rx="3" transform="translate(-2.56098 4.63912) rotate(-7.4236)"/><rect class="cls-4" x="49.30676" y="11.97364" width="10" height="15" rx="3" transform="translate(-2.06088 7.17988) rotate(-7.4236)"/><rect class="cls-5" x="31.28059" y="17.5703" width="6" height="6" rx="2" transform="translate(-2.37043 4.60161) rotate(-7.4236)"/><rect class="cls-5" x="51.11296" y="14.98622" width="6" height="6" rx="2" transform="translate(-1.87032 7.14237) rotate(-7.4236)"/><path class="cls-6" d="M34.02219,18.58706h0a2,2,0,0,1,2.24164,1.72483h0A2,2,0,0,1,34.539,22.55353h0a2,2,0,0,1-2.24164-1.72483h0A2,2,0,0,1,34.02219,18.58706Z"/><path class="cls-6" d="M53.85455,16.003h0a2,2,0,0,1,2.24164,1.72483h0a2,2,0,0,1-1.72483,2.24164h0a2,2,0,0,1-2.24164-1.72483h0A2,2,0,0,1,53.85455,16.003Z"/><rect class="cls-7" x="20.68262" y="23.18186" width="50" height="15" rx="3" transform="translate(-3.58131 6.15955) rotate(-7.4236)"/><rect class="cls-5" x="23.68262" y="26.18186" width="44" height="9" rx="3" transform="translate(-3.58131 6.15955) rotate(-7.4236)"/><path class="cls-8" d="M23.24625,28.92259,29.86247,37.137,34.15414,27.502l6.61622,8.21435L45.062,26.08148l6.61622,8.21436,4.29167-9.63492,6.61622,8.21436,4.29167-9.63491"/><polygon points="7.561 22.233 7.605 25.194 15.814 23.404 7.561 22.233"/><polygon points="8.207 15.438 6.932 18.11 15.082 20.152 8.207 15.438"/><polygon points="13.312 11.391 11.111 13.371 17.855 18.381 13.312 11.391"/><path d="M90.35572,57.82172V22.59222H101.8733q5.73486,0,8.626,2.37159,2.89012,2.37158,2.8916,7.0166a7.15838,7.15838,0,0,1-1.40332,4.3667,9.10567,9.10567,0,0,1-3.82324,2.94043,8.176,8.176,0,0,1,4.51269,3.03613,8.72081,8.72081,0,0,1,1.65723,5.33594,9.42206,9.42206,0,0,1-3.07324,7.45215q-3.07324,2.71-8.68653,2.71Zm4.64551-20.20411h7.01758a7.35287,7.35287,0,0,0,4.875-1.52734,5.121,5.121,0,0,0,1.82715-4.146,5.037,5.037,0,0,0-1.69434-4.23144,8.31669,8.31669,0,0,0-5.15332-1.32178H95.00123Zm0,3.72657V54.02289h7.6709a7.38508,7.38508,0,0,0,5.11719-1.68164,5.90582,5.90582,0,0,0,1.875-4.63379q0-6.36329-6.91993-6.36328Z"/><path d="M119.31861,44.48969a15.46614,15.46614,0,0,1,1.51172-6.91993,11.27774,11.27774,0,0,1,4.21-4.74267,11.46419,11.46419,0,0,1,6.15821-1.66944,11.04161,11.04161,0,0,1,8.65039,3.70215q3.30175,3.70167,3.30273,9.84766v.31445a15.59807,15.59807,0,0,1-1.46387,6.85938,11.115,11.115,0,0,1-4.18652,4.73047,11.58428,11.58428,0,0,1-6.25391,1.69433,11.01308,11.01308,0,0,1-8.626-3.70215q-3.30322-3.70312-3.30274-9.7998Zm4.5.53222a11.20465,11.20465,0,0,0,2.02051,6.99317,6.84735,6.84735,0,0,0,10.82813-.03711q2.00684-2.67334,2.00781-7.48828a11.1788,11.1788,0,0,0-2.04492-6.98047,6.50075,6.50075,0,0,0-5.43164-2.67383,6.42776,6.42776,0,0,0-5.34766,2.63769Q123.81911,40.10981,123.81861,45.02191Z"/><path d="M161.4192,35.65765a13.493,13.493,0,0,0-2.20215-.16894q-4.40333,0-5.97656,3.75v18.583H148.7649V31.64154h4.35547l.07227,3.02441a6.97087,6.97087,0,0,1,6.24218-3.5083,4.57934,4.57934,0,0,1,1.98438.33887Z"/><path d="M180.72877,57.82172a9.3634,9.3634,0,0,1-.62988-2.75879,9.984,9.984,0,0,1-7.45215,3.24316,9.24108,9.24108,0,0,1-6.35156-2.19043,7.0825,7.0825,0,0,1-2.4795-5.55273,7.40313,7.40313,0,0,1,3.1084-6.35157q3.10986-2.26171,8.74707-2.26269h4.35547V39.892a5.0281,5.0281,0,0,0-1.40332-3.73828,5.64269,5.64269,0,0,0-4.1377-1.39063,6.53359,6.53359,0,0,0-4.0166,1.209,3.56649,3.56649,0,0,0-1.62109,2.92773h-4.5a6.17351,6.17351,0,0,1,1.39062-3.78613,9.49522,9.49522,0,0,1,3.7754-2.89111,12.688,12.688,0,0,1,5.23828-1.06495,10.35177,10.35177,0,0,1,7.08886,2.26221,8.16193,8.16193,0,0,1,2.66211,6.23V51.69965a14.73043,14.73043,0,0,0,.919,5.73535v.38672Zm-7.42871-3.41211a7.86769,7.86769,0,0,0,3.99219-1.08789,6.58807,6.58807,0,0,0,2.73437-2.83106V45.11859h-3.50879q-8.22656,0-8.22656,4.81543a4.07334,4.07334,0,0,0,1.40332,3.29A5.39161,5.39161,0,0,0,173.30006,54.40961Z"/><path d="M191.5442,24.6972a2.66937,2.66937,0,0,1,.665-1.83886,2.499,2.499,0,0,1,1.97168-.75,2.54024,2.54024,0,0,1,1.98437.75,2.64741,2.64741,0,0,1,.67774,1.83886,2.65006,2.65006,0,1,1-5.29883,0Zm4.83887,33.12452H191.9065V31.64154h4.47657Z"/><path d="M207.77955,31.64154l.14453,3.291a9.53975,9.53975,0,0,1,7.83985-3.77491q8.29833,0,8.37207,9.36329V57.82172h-4.47657V40.4975a6.028,6.028,0,0,0-1.29492-4.18653,5.18639,5.18639,0,0,0-3.95605-1.35449,6.4579,6.4579,0,0,0-3.82227,1.16113,7.88853,7.88853,0,0,0-2.56543,3.04883V57.82172h-4.47558V31.64154Z"/><path d="M230.91041,24.6972a2.66937,2.66937,0,0,1,.665-1.83886,2.499,2.499,0,0,1,1.97168-.75,2.54024,2.54024,0,0,1,1.98437.75,2.64736,2.64736,0,0,1,.67774,1.83886,2.65006,2.65006,0,1,1-5.29883,0Zm4.83887,33.12452h-4.47657V31.64154h4.47657Z"/><path d="M90.11549,67.26117a3.27919,3.27919,0,0,1,.60449-2.085,2.13438,2.13438,0,0,1,3.18848-.10156l.042-.5625h.8789v7.74218h-.957v-2.667a2.00633,2.00633,0,0,1-1.54.62012,1.92942,1.92942,0,0,1-1.61523-.78809,3.35614,3.35614,0,0,1-.60156-2.09082Zm.95605.1084a2.48842,2.48842,0,0,0,.40528,1.50976,1.29077,1.29077,0,0,0,1.09375.54786,1.43142,1.43142,0,0,0,1.30175-.75489V65.933a1.43442,1.43442,0,0,0-1.292-.73925,1.29947,1.29947,0,0,0-1.10058.55078A2.70544,2.70544,0,0,0,91.07154,67.36957Z"/><path d="M99.81568,69.55121a2.03016,2.03016,0,0,1-1.63769.65625,1.73683,1.73683,0,0,1-1.36231-.51953,2.2477,2.2477,0,0,1-.47265-1.53809V64.51215h.95605v3.6123q0,1.27149,1.0332,1.27149a1.43252,1.43252,0,0,0,1.458-.81641V64.51215h.95606v5.59179h-.90918Z"/><path d="M105.65162,70.10394a2.01886,2.01886,0,0,1-.13379-.58886,2.13294,2.13294,0,0,1-1.5918.69238,1.97719,1.97719,0,0,1-1.35742-.46777,1.51447,1.51447,0,0,1-.52929-1.18653,1.58172,1.58172,0,0,1,.66406-1.35644,3.12914,3.12914,0,0,1,1.86816-.4834h.93067v-.43946a1.07381,1.07381,0,0,0-.29981-.79785,1.20452,1.20452,0,0,0-.88379-.29785,1.39392,1.39392,0,0,0-.8584.25879.76131.76131,0,0,0-.3457.625h-.96191a1.31777,1.31777,0,0,1,.29785-.80859,2.02426,2.02426,0,0,1,.80566-.61719,2.70424,2.70424,0,0,1,1.11914-.22754,2.21077,2.21077,0,0,1,1.51465.4834,1.74058,1.74058,0,0,1,.56836,1.33008v2.57422a3.14416,3.14416,0,0,0,.19629,1.22461v.083Zm-1.58594-.72851a1.68633,1.68633,0,0,0,.85254-.23242,1.41384,1.41384,0,0,0,.584-.60547V67.39008h-.75q-1.75635,0-1.75684,1.02929a.86662.86662,0,0,0,.29981.70215A1.152,1.152,0,0,0,104.06568,69.37543Z"/><path d="M108.99635,70.10394h-.95606V62.16547h.95606Z"/><path d="M110.53053,63.02875a.57384.57384,0,0,1,.14257-.39356.53486.53486,0,0,1,.4209-.16015.54286.54286,0,0,1,.42383.16015.5662.5662,0,0,1,.14453.39356.5428.5428,0,0,1-.14453.38672.551.551,0,0,1-.42383.15527.54278.54278,0,0,1-.4209-.15527A.55.55,0,0,1,110.53053,63.02875Zm1.03418,7.07519h-.95606V64.51215h.95606Z"/><path d="M114.39088,63.15765v1.3545h1.04394v.73828h-1.04394v3.47265a.77841.77841,0,0,0,.13965.50489.58829.58829,0,0,0,.47558.168,2.279,2.279,0,0,0,.45508-.0625v.77148a2.79558,2.79558,0,0,1-.73437.10254,1.18854,1.18854,0,0,1-.96582-.3877,1.66115,1.66115,0,0,1-.32618-1.10058V65.25043h-1.01757v-.73828h1.01757v-1.3545Z"/><path d="M118.38111,68.70355l1.30274-4.1914h1.02343l-2.248,6.45507q-.523,1.396-1.65918,1.39551l-.18067-.01562-.35644-.06739v-.77539l.25781.02051a1.27586,1.27586,0,0,0,.75781-.19629,1.42153,1.42153,0,0,0,.44629-.71777l.21192-.56934-1.99512-5.52929h1.04492Z"/><path d="M126.42408,69.42719a1.37936,1.37936,0,0,0,.89453-.31055,1.08935,1.08935,0,0,0,.42285-.77539h.90528a1.73871,1.73871,0,0,1-.33106.915,2.17447,2.17447,0,0,1-.81445.69238,2.33894,2.33894,0,0,1-1.07715.25879,2.30055,2.30055,0,0,1-1.8164-.7627,3.0321,3.0321,0,0,1-.67481-2.085v-.16015a3.36368,3.36368,0,0,1,.29981-1.45313,2.27564,2.27564,0,0,1,.86035-.98633,2.44414,2.44414,0,0,1,1.32617-.35156,2.24277,2.24277,0,0,1,1.56348.56348,2.014,2.014,0,0,1,.66406,1.46191h-.90528a1.31991,1.31991,0,0,0-.41015-.8916,1.28037,1.28037,0,0,0-.91211-.34863,1.33957,1.33957,0,0,0-1.12988.52441,2.46727,2.46727,0,0,0-.40039,1.51758v.18066a2.41068,2.41068,0,0,0,.39843,1.48828A1.34136,1.34136,0,0,0,126.42408,69.42719Z"/><path d="M129.468,67.25629a3.3109,3.3109,0,0,1,.32226-1.47852,2.41273,2.41273,0,0,1,.89942-1.01269,2.44609,2.44609,0,0,1,1.31543-.35645,2.35909,2.35909,0,0,1,1.84765.79,3.04129,3.04129,0,0,1,.70606,2.10352v.06738a3.33976,3.33976,0,0,1-.3125,1.46582,2.37539,2.37539,0,0,1-.89453,1.00976,2.47647,2.47647,0,0,1-1.33594.36231,2.35349,2.35349,0,0,1-1.84278-.791,3.0243,3.0243,0,0,1-.70507-2.09277Zm.96093.11328a2.39252,2.39252,0,0,0,.43164,1.49414,1.46185,1.46185,0,0,0,2.3125-.00781,2.61555,2.61555,0,0,0,.42969-1.59961,2.38394,2.38394,0,0,0-.4375-1.49121,1.38772,1.38772,0,0,0-1.16015-.57129,1.371,1.371,0,0,0-1.14161.56347A2.59334,2.59334,0,0,0,130.429,67.36957Z"/><path d="M135.52564,67.26117a3.28087,3.28087,0,0,1,.60938-2.07031,2.07639,2.07639,0,0,1,3.15332-.11035v-2.915h.95605v7.93847h-.8789l-.04688-.59961a1.94487,1.94487,0,0,1-1.59668.70313,1.911,1.911,0,0,1-1.584-.7959,3.31634,3.31634,0,0,1-.61231-2.07812Zm.95606.1084a2.48247,2.48247,0,0,0,.39258,1.48926,1.27,1.27,0,0,0,1.08593.53711,1.39541,1.39541,0,0,0,1.32813-.81641V66.01019a1.40528,1.40528,0,0,0-1.31836-.79,1.276,1.276,0,0,0-1.0957.542A2.73307,2.73307,0,0,0,136.4817,67.36957Z"/><path d="M144.0481,70.20746a2.44044,2.44044,0,0,1-1.8496-.74707,2.77217,2.77217,0,0,1-.71387-1.99707v-.17578a3.3567,3.3567,0,0,1,.31836-1.48633,2.47863,2.47863,0,0,1,.88867-1.02344,2.23658,2.23658,0,0,1,1.23828-.36914,2.09626,2.09626,0,0,1,1.69531.71777,3.11722,3.11722,0,0,1,.6045,2.05762v.39746h-3.78907a1.98421,1.98421,0,0,0,.4834,1.33594,1.51819,1.51819,0,0,0,1.17578.50977,1.66789,1.66789,0,0,0,.8584-.207,2.15227,2.15227,0,0,0,.61524-.54785l.584.45508A2.35,2.35,0,0,1,144.0481,70.20746Zm-.11816-5.01367a1.27554,1.27554,0,0,0-.97168.4209,2.04776,2.04776,0,0,0-.48633,1.18164h2.80176v-.07227a1.82742,1.82742,0,0,0-.39355-1.12988A1.20089,1.20089,0,0,0,143.92994,65.19379Z"/><path d="M154.9065,68.78558l1.0752-4.27343h.95605l-1.62793,5.59179h-.77539l-1.35937-4.23828-1.32324,4.23828h-.77539l-1.62208-5.59179h.9502l1.10156,4.18554,1.30176-4.18554h.77051Z"/><path d="M157.91529,63.02875a.5738.5738,0,0,1,.14258-.39356.53484.53484,0,0,1,.4209-.16015.54288.54288,0,0,1,.42383.16015.5662.5662,0,0,1,.14453.39356.5428.5428,0,0,1-.14453.38672.551.551,0,0,1-.42383.15527.54277.54277,0,0,1-.4209-.15527A.54992.54992,0,0,1,157.91529,63.02875Zm1.03418,7.07519h-.95605V64.51215h.95605Z"/><path d="M161.77564,63.15765v1.3545h1.04395v.73828h-1.04395v3.47265a.77847.77847,0,0,0,.13965.50489.58831.58831,0,0,0,.47559.168,2.279,2.279,0,0,0,.45508-.0625v.77148a2.79571,2.79571,0,0,1-.73438.10254,1.18856,1.18856,0,0,1-.96582-.3877,1.6612,1.6612,0,0,1-.32617-1.10058V65.25043H159.802v-.73828h1.01758v-1.3545Z"/><path d="M164.89283,65.1889a2.033,2.033,0,0,1,1.6543-.78027q1.77246,0,1.78808,2v3.69531h-.956V66.40375a1.29224,1.29224,0,0,0-.27637-.89453,1.10867,1.10867,0,0,0-.8457-.28907,1.37636,1.37636,0,0,0-.81641.248,1.67985,1.67985,0,0,0-.54785.65039v3.98535h-.95605V62.16547h.95605Z"/><path d="M188.74439,68.62054a.70331.70331,0,0,0-.292-.60253,2.82128,2.82128,0,0,0-1.01758-.36915,4.8306,4.8306,0,0,1-1.15332-.37207,1.63856,1.63856,0,0,1-.62988-.5166,1.23286,1.23286,0,0,1-.2041-.71386,1.44815,1.44815,0,0,1,.58105-1.16211,2.26892,2.26892,0,0,1,1.48633-.47559,2.33556,2.33556,0,0,1,1.542.49023,1.56122,1.56122,0,0,1,.5918,1.25684h-.96094a.8645.8645,0,0,0-.333-.67773,1.25132,1.25132,0,0,0-.83985-.28418,1.31162,1.31162,0,0,0-.81738.22754.71523.71523,0,0,0-.29395.59472.57922.57922,0,0,0,.27344.52149,3.35925,3.35925,0,0,0,.99024.33593,5.1922,5.1922,0,0,1,1.16015.38282,1.69871,1.69871,0,0,1,.65918.53515,1.315,1.315,0,0,1,.21387.76172,1.43023,1.43023,0,0,1-.59961,1.20215,2.51192,2.51192,0,0,1-1.55566.45215,2.8071,2.8071,0,0,1-1.18848-.23828,1.92781,1.92781,0,0,1-.8086-.66407,1.59537,1.59537,0,0,1-.292-.92187h.95606a.99.99,0,0,0,.38476.76172,1.48932,1.48932,0,0,0,.94825.28223,1.5411,1.5411,0,0,0,.87109-.21973A.675.675,0,0,0,188.74439,68.62054Z"/><path d="M190.95143,63.02875a.57384.57384,0,0,1,.14257-.39356.53484.53484,0,0,1,.4209-.16015.54286.54286,0,0,1,.42383.16015.5662.5662,0,0,1,.14453.39356.5428.5428,0,0,1-.14453.38672.551.551,0,0,1-.42383.15527.54277.54277,0,0,1-.4209-.15527A.55.55,0,0,1,190.95143,63.02875Zm1.03417,7.07519h-.95605V64.51215h.95605Z"/><path d="M194.42018,64.51215l.03125.70214a2.03778,2.03778,0,0,1,1.6748-.80566q1.77246,0,1.78809,2v3.69531h-.95606V66.40375a1.29224,1.29224,0,0,0-.27637-.89453,1.10867,1.10867,0,0,0-.8457-.28907,1.37636,1.37636,0,0,0-.81641.248,1.67985,1.67985,0,0,0-.54785.65039v3.98535h-.956V64.51215Z"/><path d="M201.59889,69.42719a1.37936,1.37936,0,0,0,.89453-.31055,1.08939,1.08939,0,0,0,.42285-.77539h.90527a1.73878,1.73878,0,0,1-.33105.915,2.1745,2.1745,0,0,1-.81446.69238,2.3389,2.3389,0,0,1-1.07714.25879,2.30058,2.30058,0,0,1-1.81641-.7627,3.03209,3.03209,0,0,1-.6748-2.085v-.16015a3.36368,3.36368,0,0,1,.2998-1.45313,2.27576,2.27576,0,0,1,.86035-.98633,2.44414,2.44414,0,0,1,1.32617-.35156,2.24276,2.24276,0,0,1,1.56348.56348,2.01392,2.01392,0,0,1,.66406,1.46191h-.90527a1.31988,1.31988,0,0,0-.41016-.8916,1.28037,1.28037,0,0,0-.91211-.34863,1.3396,1.3396,0,0,0-1.12988.52441,2.46734,2.46734,0,0,0-.40039,1.51758v.18066a2.41061,2.41061,0,0,0,.39844,1.48828A1.34134,1.34134,0,0,0,201.59889,69.42719Z"/><path d="M207.21705,70.20746a2.44048,2.44048,0,0,1-1.84961-.74707,2.77217,2.77217,0,0,1-.71387-1.99707v-.17578a3.35684,3.35684,0,0,1,.31836-1.48633,2.47877,2.47877,0,0,1,.88867-1.02344,2.23658,2.23658,0,0,1,1.23829-.36914,2.09626,2.09626,0,0,1,1.69531.71777,3.11727,3.11727,0,0,1,.60449,2.05762v.39746h-3.78906a1.98416,1.98416,0,0,0,.4834,1.33594,1.51816,1.51816,0,0,0,1.17578.50977,1.66791,1.66791,0,0,0,.8584-.207,2.15223,2.15223,0,0,0,.61523-.54785l.584.45508A2.35,2.35,0,0,1,207.21705,70.20746Zm-.11816-5.01367a1.27554,1.27554,0,0,0-.97168.4209,2.04769,2.04769,0,0,0-.48633,1.18164h2.80176v-.07227a1.82736,1.82736,0,0,0-.39356-1.12988A1.20085,1.20085,0,0,0,207.09889,65.19379Z"/><path d="M217.95631,70.10394h-4.93067v-.6875l2.60547-2.89453a6.18258,6.18258,0,0,0,.79883-1.06738,1.78684,1.78684,0,0,0,.21875-.84961,1.34963,1.34963,0,0,0-.35644-.9668,1.24811,1.24811,0,0,0-.95118-.377,1.47736,1.47736,0,0,0-1.10839.40527,1.55087,1.55087,0,0,0-.39551,1.12989h-.95606a2.21763,2.21763,0,0,1,.66992-1.67969,2.47712,2.47712,0,0,1,1.79-.6416,2.38171,2.38171,0,0,1,1.65918.55078,1.876,1.876,0,0,1,.61035,1.46484,4.308,4.308,0,0,1-1.416,2.64649L214.179,69.32367h3.77735Z"/><path d="M223.68873,66.894a4.37367,4.37367,0,0,1-.57324,2.49707,2.38332,2.38332,0,0,1-3.57617.01758,4.142,4.142,0,0,1-.59961-2.38477V65.74652a4.27186,4.27186,0,0,1,.57324-2.46484,2.42582,2.42582,0,0,1,3.58691-.02832,4.118,4.118,0,0,1,.58887,2.40039Zm-.95605-1.30762a3.49935,3.49935,0,0,0-.34083-1.76953,1.17331,1.17331,0,0,0-1.08007-.55566,1.1609,1.1609,0,0,0-1.07032.55273,3.42584,3.42584,0,0,0-.3457,1.7002v1.53027a3.56526,3.56526,0,0,0,.35352,1.80078,1.17271,1.17271,0,0,0,1.07226.582,1.15714,1.15714,0,0,0,1.05274-.54786,3.43518,3.43518,0,0,0,.3584-1.72656Z"/><path d="M228.05592,70.10394H227.095v-6.373l-1.92773.708v-.86816l2.73925-1.02832h.14942Z"/><path d="M235.78834,70.10394h-4.93066v-.6875l2.60546-2.89453a6.182,6.182,0,0,0,.79883-1.06738,1.78684,1.78684,0,0,0,.21875-.84961,1.34963,1.34963,0,0,0-.35644-.9668,1.24811,1.24811,0,0,0-.95118-.377,1.47737,1.47737,0,0,0-1.10839.40527,1.55087,1.55087,0,0,0-.39551,1.12989h-.95606a2.2176,2.2176,0,0,1,.66993-1.67969,2.47708,2.47708,0,0,1,1.79-.6416,2.38171,2.38171,0,0,1,1.65918.55078,1.876,1.876,0,0,1,.61036,1.46484,4.308,4.308,0,0,1-1.416,2.64649L232.011,69.32367h3.77734Z"/><path class="cls-9" d="M176.75093,71.53515c.30409-.139,5.8277-2.99362,5.82771-6.47163a3.12724,3.12724,0,0,0-2.647-3.02512c-1.38653,0-3.02409,2.11075-3.02409,2.11075a3.45945,3.45945,0,0,0-3.02513-2.14279,3.12725,3.12725,0,0,0-2.647,3.02512c0,3.478,5.21136,6.36467,5.51545,6.50367"/></g></svg>